HIERARCHY
ROOT root
{
	OFFSET	0	13.1	24.9
	CHANNELS 6  Xposition Yposition Zposition Xrotation Yrotation Zrotation
	JOINT spine_1
	{
		OFFSET	0	9.99999	0
		CHANNELS 3  Xrotation Yrotation Zrotation
		JOINT spine_2
		{
			OFFSET	0	112	-10
			CHANNELS 3  Xrotation Yrotation Zrotation
			JOINT spine_3
			{
				OFFSET	0	206.5	19.3
				CHANNELS 3  Xrotation Yrotation Zrotation
				JOINT spine_4
				{
					OFFSET	0	110.4	14.6
					CHANNELS 3  Xrotation Yrotation Zrotation
					JOINT neck_1
					{
						OFFSET	0	71.8	-50.3
						CHANNELS 3  Xrotation Yrotation Zrotation
						JOINT neck_2
						{
							OFFSET	0	86.2	-25.8
							CHANNELS 3  Xrotation Yrotation Zrotation
							JOINT head_ee
							{
								OFFSET	0	179.8	-8.7
								CHANNELS 3  Xrotation Yrotation Zrotation
								End Site
								{
									OFFSET	1	0	0
								}
							}
						}
					}
					JOINT left_clavicle
					{
						OFFSET	-43.2	22.4	-70.8
						CHANNELS 3  Xrotation Yrotation Zrotation
						JOINT left_shoulder
						{
							OFFSET	-93.9	-5.79999	48.7
							CHANNELS 3  Xrotation Yrotation Zrotation
							JOINT left_elbow
							{
								OFFSET	-291.4	-30.8	15.2
								CHANNELS 3  Xrotation Yrotation Zrotation
								JOINT left_lowarm_twist
								{
									OFFSET	-110.7	-3.89999	13.6
									CHANNELS 3  Xrotation Yrotation Zrotation
									JOINT left_hand
									{
										OFFSET	-110.7	-3.89999	13.6
										CHANNELS 3  Xrotation Yrotation Zrotation
										JOINT left_ee
										{
											OFFSET	-80.8	-5.10001	12.1
											CHANNELS 3  Xrotation Yrotation Zrotation
											End Site
											{
												OFFSET	1	0	0
											}
										}
									}
								}
							}
						}
					}
					JOINT right_clavicle
					{
						OFFSET	43.2	22.4	-70.8
						CHANNELS 3  Xrotation Yrotation Zrotation
						JOINT right_shoulder
						{
							OFFSET	93.9	-5.79999	48.7
							CHANNELS 3  Xrotation Yrotation Zrotation
							JOINT right_elbow
							{
								OFFSET	291.4	-30.8	15.2
								CHANNELS 3  Xrotation Yrotation Zrotation
								JOINT right_lowarm_twist
								{
									OFFSET	110.7	-3.89999	13.6
									CHANNELS 3  Xrotation Yrotation Zrotation
									JOINT right_hand
									{
										OFFSET	110.7	-3.89999	13.6
										CHANNELS 3  Xrotation Yrotation Zrotation
										JOINT right_ee
										{
											OFFSET	80.8	-5.10001	12.1
											CHANNELS 3  Xrotation Yrotation Zrotation
											End Site
											{
												OFFSET	1	0	0
											}
										}
									}
								}
							}
						}
					}
				}
			}
		}
	}
	JOINT left_hip
	{
		OFFSET	-82.8	-127.5	0.300001
		CHANNELS 3  Xrotation Yrotation Zrotation
		JOINT left_knee
		{
			OFFSET	-28.2	-396.7	2.2
			CHANNELS 3  Xrotation Yrotation Zrotation
			JOINT left_ankle
			{
				OFFSET	-11.7	-411.3	35.4
				CHANNELS 3  Xrotation Yrotation Zrotation
				JOINT left_toes
				{
					OFFSET	0	-60	-88.6
					CHANNELS 3  Xrotation Yrotation Zrotation
					JOINT left_foot_ee
					{
						OFFSET	-22.5	-16.5	-42.2
						CHANNELS 3  Xrotation Yrotation Zrotation
						End Site
						{
							OFFSET	1	0	0
						}
					}
				}
			}
		}
	}
	JOINT right_hip
	{
		OFFSET	82.8	-127.5	0.300001
		CHANNELS 3  Xrotation Yrotation Zrotation
		JOINT right_knee
		{
			OFFSET	28.2	-396.7	2.2
			CHANNELS 3  Xrotation Yrotation Zrotation
			JOINT right_ankle
			{
				OFFSET	11.7	-411.3	35.4
				CHANNELS 3  Xrotation Yrotation Zrotation
				JOINT right_toes
				{
					OFFSET	0	-60	-88.6
					CHANNELS 3  Xrotation Yrotation Zrotation
					JOINT right_foot_ee
					{
						OFFSET	22.5	-16.5	-42.2
						CHANNELS 3  Xrotation Yrotation Zrotation
						End Site
						{
							OFFSET	1	0	0
						}
					}
				}
			}
		}
	}
}
MOTION
Frames: 14
Frame Time: 0.02
2505.04840749 739.013 -1480.3893942 11.6082408564 76.95393521 -22.3000672113 0.685517 1.09073 5.1922 0.700188 0.758597 5.25086 0.775272 -0.290026 5.29731 0.736555 0.549032 5.27682 -5.75048 17.2256 -4.05866 -5.47597 34.8118 -0.935875 -0.0 0.0 -0.0 -1.78228 21.1721 -0.0949525 -30.9098 -12.0866 63.5213 0.660766 -18.1246 0.105393 -37.6957 -2.7095 3.8903 1.89638 6.42293 15.2508 -0.0 0.0 -0.0 12.9781 26.5023 -25.5666 1.96917 10.4132 -73.806 1.2341 31.4377 -0.347341 50.3866 0.996623 6.15428 -4.72651 -21.6851 19.3615 0.0 0.0 0.0 1.13946 35.1591 -1.48176 -41.5257 -0.566675 6.21053 34.1929 -0.0917348 -4.34115 -33.1933 0.0 0.0 -0.0 0.0 -0.0 2.66124 13.2788 4.19482 -2.34365 -0.0893778 -0.348542 23.9524 24.0418 3.73224 5.57643 -0.0 -0.0 0.0 0.0 0.0 
2502.42255489 741.307 -1477.43162049 8.24789747951 75.9922936172 -18.5678945133 0.684366 1.2077 5.23694 0.699193 0.872499 5.30292 0.785809 -0.187141 5.37077 0.74619 0.662189 5.33318 -5.80416 17.1209 -4.45677 -5.52086 34.9109 -1.34607 -0.0 0.0 -0.0 -1.95595 21.9985 -0.206612 -31.7314 -11.9592 63.7962 0.719217 -19.6099 0.124296 -35.899 -2.52596 3.75084 2.23961 5.08334 17.1021 -0.0 0.0 -0.0 13.4285 26.7078 -26.5831 2.44471 11.5491 -72.0643 1.41818 35.0869 -0.448353 50.46 1.00194 6.16204 -3.73783 -20.8186 13.8143 0.0 0.0 0.0 2.84557 30.2467 -0.360251 -38.4075 -0.368576 5.77406 35.2601 5.79946 -4.42366 -33.472 0.0 0.0 -0.0 0.0 -0.0 2.74715 14.151 3.45427 -1.55113 -0.0607527 -0.230284 24.0593 22.0059 3.67149 1.4158 -0.0 -0.0 0.0 0.0 0.0 
2495.79005169 738.757 -1473.6449223 9.69117082052 76.4144463325 -19.9493047728 0.451614 1.06977 5.25506 0.466671 0.733694 5.31225 0.541342 -0.348584 5.35123 0.501752 0.499682 5.33927 -5.79826 18.0087 -3.52718 -5.53817 35.8845 -0.225601 -0.0 0.0 -0.0 -2.96083 22.6748 -1.49669 -30.728 -13.112 65.9101 0.725514 -19.7684 0.126418 -35.7186 -2.50777 3.73652 2.33873 5.35397 17.8873 -0.0 0.0 -0.0 13.598 26.969 -26.9433 3.06694 12.3909 -71.0928 1.51885 36.955 -0.507563 48.135 0.838552 5.91322 -2.7357 -17.6051 9.49932 0.0 0.0 0.0 1.57558 30.4439 0.699088 -25.4052 0.192461 3.86208 35.4609 8.21118 -4.44784 -34.7443 0.0 0.0 -0.0 0.0 -0.0 2.8944 12.1106 3.09732 -2.34618 -0.0894666 -0.34892 25.929 20.2004 3.84768 -0.0809658 0.0 0.0 0.0 0.0 0.0 
2492.45841289 735.725 -1472.71585957 7.72370731497 76.1375605505 -17.9820099226 0.640514 0.99037 5.26018 0.655662 0.654129 5.31234 0.72199 -0.410016 5.33666 0.682536 0.436724 5.33455 -7.30071 17.2476 -3.6328 -7.28149 34.703 0.0437587 -0.0 0.0 -0.0 -2.83568 23.0081 -1.25727 -30.5842 -13.2773 66.053 0.742391 -20.1914 0.132185 -35.0665 -2.44241 3.68429 2.57046 6.46118 19.9024 -0.0 0.0 -0.0 13.8623 26.9583 -27.5597 3.27253 14.2126 -70.9398 1.6708 39.6101 -0.601727 47.5583 0.799605 5.8505 -2.48548 -16.5932 8.48464 0.0 0.0 0.0 0.958023 28.2626 1.72101 -16.9687 0.31941 2.57492 33.3651 6.91491 -4.23782 -34.3695 0.0 0.0 -0.0 0.0 -0.0 3.91768 9.71261 3.18533 -2.64454 -0.0998163 -0.39354 27.2005 16.8741 3.89789 -3.27483 0.0 0.0 0.0 0.0 0.0 
2456.00444952 747.765 -1502.63742996 -3.38093880793 65.4103379423 -5.99797490677 1.0953 0.690121 4.49976 1.10647 0.402693 4.53446 1.14085 -0.469827 4.52801 1.11234 0.250422 4.54539 -4.45664 17.8961 -3.42051 -3.99185 35.4301 -0.610924 -0.0 0.0 -0.0 -3.8626 21.5309 -3.01677 -19.0214 -18.5538 70.0473 0.86705 -23.2438 0.178329 -32.4845 -2.18963 3.47033 3.14893 9.82018 25.1533 -0.0 0.0 -0.0 14.0443 25.6651 -28.1479 -3.10669 15.8132 -67.7633 1.50969 36.7887 -0.502066 45.6184 0.673284 5.63676 1.72323 -1.66565 -12.2531 0.0 0.0 0.0 1.72906 21.8453 4.1095 -4.23212 0.150967 0.63181 31.4631 0.693594 -4.05959 -38.301 0.0 0.0 -0.0 0.0 -0.0 9.67533 5.03067 3.11864 -6.61637 -0.215326 -0.992025 35.1748 11.7536 4.62312 -22.314 0.0 0.0 0.0 0.0 0.0 
2455.90430639 747.765 -1501.41475784 -3.40733340712 65.6130449383 -5.96897136024 1.0953 0.690121 4.49976 1.10647 0.402693 4.53446 1.14085 -0.469827 4.52801 1.11234 0.250422 4.54539 -4.45664 17.8961 -3.42051 -3.99185 35.4301 -0.610924 -0.0 0.0 -0.0 -3.8626 21.5309 -3.01677 -19.0214 -18.5538 70.0473 0.86705 -23.2438 0.178329 -32.4845 -2.18963 3.47033 3.14893 9.82018 25.1533 -0.0 0.0 -0.0 14.0443 25.6651 -28.1479 -3.10669 15.8132 -67.7633 1.50969 36.7887 -0.502066 45.6184 0.673284 5.63676 1.72323 -1.66565 -12.2531 0.0 0.0 0.0 1.72906 21.8453 4.1095 -4.23212 0.150967 0.63181 31.4631 0.693594 -4.05959 -38.301 0.0 0.0 -0.0 0.0 -0.0 9.67533 5.03067 3.11864 -6.61637 -0.215326 -0.992025 35.1748 11.7536 4.62312 -22.314 0.0 0.0 0.0 0.0 0.0 
2455.76636684 747.765 -1499.63552674 -3.44655076522 65.9079117847 -5.92596233355 1.0953 0.690121 4.49976 1.10647 0.402693 4.53446 1.14085 -0.469827 4.52801 1.11234 0.250422 4.54539 -4.45664 17.8961 -3.42051 -3.99185 35.4301 -0.610924 -0.0 0.0 -0.0 -3.8626 21.5309 -3.01677 -19.0214 -18.5538 70.0473 0.86705 -23.2438 0.178329 -32.4845 -2.18963 3.47033 3.14893 9.82018 25.1533 -0.0 0.0 -0.0 14.0443 25.6651 -28.1479 -3.10669 15.8132 -67.7633 1.50969 36.7887 -0.502066 45.6184 0.673284 5.63676 1.72323 -1.66565 -12.2531 0.0 0.0 0.0 1.72906 21.8453 4.1095 -4.23212 0.150967 0.63181 31.4631 0.693594 -4.05959 -38.301 0.0 0.0 -0.0 0.0 -0.0 9.67533 5.03067 3.11864 -6.61637 -0.215326 -0.992025 35.1748 11.7536 4.62312 -22.314 0.0 0.0 0.0 0.0 0.0 
2455.45129725 747.765 -1495.01661796 -3.55307435939 66.6728198873 -5.80962135766 1.0953 0.690121 4.49976 1.10647 0.402693 4.53446 1.14085 -0.469827 4.52801 1.11234 0.250422 4.54539 -4.45664 17.8961 -3.42051 -3.99185 35.4301 -0.610924 -0.0 0.0 -0.0 -3.8626 21.5309 -3.01677 -19.0214 -18.5538 70.0473 0.86705 -23.2438 0.178329 -32.4845 -2.18963 3.47033 3.14893 9.82018 25.1533 -0.0 0.0 -0.0 14.0443 25.6651 -28.1479 -3.10669 15.8132 -67.7633 1.50969 36.7887 -0.502066 45.6184 0.673284 5.63676 1.72323 -1.66565 -12.2531 0.0 0.0 0.0 1.72906 21.8453 4.1095 -4.23212 0.150967 0.63181 31.4631 0.693594 -4.05959 -38.301 0.0 0.0 -0.0 0.0 -0.0 9.67533 5.03067 3.11864 -6.61637 -0.215326 -0.992025 35.1748 11.7536 4.62312 -22.314 0.0 0.0 0.0 0.0 0.0 
2455.34724958 747.765 -1493.25110262 -3.59569648936 66.9649984293 -5.76325607983 1.0953 0.690121 4.49976 1.10647 0.402693 4.53446 1.14085 -0.469827 4.52801 1.11234 0.250422 4.54539 -4.45664 17.8961 -3.42051 -3.99185 35.4301 -0.610924 -0.0 0.0 -0.0 -3.8626 21.5309 -3.01677 -19.0214 -18.5538 70.0473 0.86705 -23.2438 0.178329 -32.4845 -2.18963 3.47033 3.14893 9.82018 25.1533 -0.0 0.0 -0.0 14.0443 25.6651 -28.1479 -3.10669 15.8132 -67.7633 1.50969 36.7887 -0.502066 45.6184 0.673284 5.63676 1.72323 -1.66565 -12.2531 0.0 0.0 0.0 1.72906 21.8453 4.1095 -4.23212 0.150967 0.63181 31.4631 0.693594 -4.05959 -38.301 0.0 0.0 -0.0 0.0 -0.0 9.67533 5.03067 3.11864 -6.61637 -0.215326 -0.992025 35.1748 11.7536 4.62312 -22.314 0.0 0.0 0.0 0.0 0.0 
2451.16667384 750.343 -1523.18050503 -3.50551667333 61.2173429911 -5.69845649729 1.1586 0.786082 4.21779 1.16835 0.516349 4.25916 1.20897 -0.300195 4.2798 1.18362 0.378853 4.27356 -4.61282 19.1817 -2.68928 -4.15282 37.2837 0.410355 -0.0 0.0 -0.0 -3.7703 20.2424 -3.16708 -13.7041 -18.526 69.1477 0.779797 -21.1209 0.14538 -34.0377 -2.34054 3.6004 2.8055 12.4846 23.5815 -0.0 0.0 -0.0 14.1143 26.1203 -28.256 -4.98433 15.4377 -68.3185 1.2225 31.1975 -0.341311 46.1899 0.709746 5.70017 1.50486 -1.72327 -10.7927 0.0 0.0 0.0 1.57073 22.5111 4.17488 -3.95828 0.142616 0.590613 27.8078 1.55922 -3.66207 -39.3851 0.0 0.0 -0.0 0.0 -0.0 9.91277 5.99541 3.20216 -7.87731 -0.243286 -1.1835 34.8165 11.8158 4.5893 -24.2885 0.0 0.0 0.0 0.0 0.0 
2446.67582443 755.829 -1536.47325438 -3.69291557977 59.3796758569 -5.22031577931 1.11717 0.713757 4.0908 1.12636 0.45223 4.12784 1.16109 -0.341851 4.13843 1.13734 0.315451 4.14052 -5.25894 19.6105 -2.1909 -4.91922 37.8127 1.24051 -0.0 0.0 -0.0 -3.72059 20.2408 -3.094 -10.4537 -18.4528 68.3507 0.723811 -19.7255 0.125842 -34.6006 -2.3961 3.64653 2.59753 13.4806 22.4553 -0.0 0.0 -0.0 14.0018 25.8457 -28.0262 -6.33844 15.0933 -68.6384 1.0844 28.243 -0.272823 46.6168 0.737394 5.7473 1.27303 -2.16542 -9.40255 0.0 0.0 0.0 0.522842 22.641 4.47346 -3.52225 0.128912 0.5251 26.2972 2.87427 -3.48663 -39.9044 0.0 0.0 -0.0 0.0 -0.0 9.85894 6.06249 3.1697 -8.64655 -0.25827 -1.30059 33.6969 11.6885 4.47376 -25.6687 0.0 0.0 0.0 0.0 0.0 
2438.1987302 756.19 -1546.71293444 -1.34234043694 58.1675904024 -7.57923461894 1.01605 0.629508 4.07686 1.02522 0.369035 4.10858 1.05396 -0.427748 4.1029 1.03055 0.22503 4.11896 -5.60019 20.7079 -0.617693 -5.34484 38.7694 3.17951 -0.0 0.0 -0.0 -3.74543 20.0404 -3.17445 -8.67218 -18.4057 67.4738 0.683992 -18.7179 0.112732 -35.9726 -2.53339 3.75667 2.09558 15.2629 19.6279 -0.0 0.0 -0.0 13.9809 25.718 -27.9928 -7.08875 15.3661 -69.1626 0.952338 25.2557 -0.213363 47.4973 0.795526 5.84385 1.03741 -2.87898 -8.10476 0.0 0.0 0.0 -0.491197 22.5647 4.34047 -6.14805 0.20387 0.921068 27.6893 3.26234 -3.64144 -39.8036 0.0 0.0 -0.0 0.0 -0.0 9.3299 6.11003 3.61178 -12.3172 -0.30806 -1.86152 35.088 11.6887 4.61296 -27.3661 0.0 0.0 0.0 0.0 0.0 
2437.46721433 756.19 -1542.97574095 -1.36504067248 58.7571239381 -7.55260077777 1.01605 0.629508 4.07686 1.02522 0.369035 4.10858 1.05396 -0.427748 4.1029 1.03055 0.22503 4.11896 -5.60019 20.7079 -0.617693 -5.34484 38.7694 3.17951 -0.0 0.0 -0.0 -3.74543 20.0404 -3.17445 -8.67218 -18.4057 67.4738 0.683992 -18.7179 0.112732 -35.9726 -2.53339 3.75667 2.09558 15.2629 19.6279 -0.0 0.0 -0.0 13.9809 25.718 -27.9928 -7.08875 15.3661 -69.1626 0.952338 25.2557 -0.213363 47.4973 0.795526 5.84385 1.03741 -2.87898 -8.10476 0.0 0.0 0.0 -0.491197 22.5647 4.34047 -6.14805 0.20387 0.921068 27.6893 3.26234 -3.64144 -39.8036 0.0 0.0 -0.0 0.0 -0.0 9.3299 6.11003 3.61178 -12.3172 -0.30806 -1.86152 35.088 11.6887 4.61296 -27.3661 0.0 0.0 0.0 0.0 0.0 
2436.59011056 756.19 -1538.19870918 -1.39534990094 59.5090115694 -7.51729095998 1.01605 0.629508 4.07686 1.02522 0.369035 4.10858 1.05396 -0.427748 4.1029 1.03055 0.22503 4.11896 -5.60019 20.7079 -0.617693 -5.34484 38.7694 3.17951 -0.0 0.0 -0.0 -3.74543 20.0404 -3.17445 -8.67218 -18.4057 67.4738 0.683992 -18.7179 0.112732 -35.9726 -2.53339 3.75667 2.09558 15.2629 19.6279 -0.0 0.0 -0.0 13.9809 25.718 -27.9928 -7.08875 15.3661 -69.1626 0.952338 25.2557 -0.213363 47.4973 0.795526 5.84385 1.03741 -2.87898 -8.10476 0.0 0.0 0.0 -0.491197 22.5647 4.34047 -6.14805 0.20387 0.921068 27.6893 3.26234 -3.64144 -39.8036 0.0 0.0 -0.0 0.0 -0.0 9.3299 6.11003 3.61178 -12.3172 -0.30806 -1.86152 35.088 11.6887 4.61296 -27.3661 0.0 0.0 0.0 0.0 0.0 
